<?xml version="1.0" encoding="utf-8"?>
<!-- Generator: Adobe Illustrator 16.0.0, SVG Export Plug-In . SVG Version: 6.00 Build 0)  -->
<!DOCTYPE svg PUBLIC "-//W3C//DTD SVG 1.1//EN" "http://www.w3.org/Graphics/SVG/1.1/DTD/svg11.dtd">
<svg version="1.1" xmlns="http://www.w3.org/2000/svg" xmlns:xlink="http://www.w3.org/1999/xlink" x="0px" y="0px" width="50px"
	 height="40px" viewBox="0 0 50 40" enable-background="new 0 0 50 40" xml:space="preserve">
<g id="图层_1">
	<g id="图层_1_1_">
		<g>
			<path fill="#9FA0A0" d="M49.521,36.648c0,1.776-1.352,3.229-3,3.229H3.479c-1.65,0-3-1.453-3-3.229V3.63
				c0-1.776,1.35-3.23,3-3.23h43.042c1.648,0,3,1.454,3,3.23V36.648z"/>
			<path fill="none" stroke="#4F4D4D" stroke-miterlimit="10" d="M49.521,36.648c0,1.776-1.352,3.229-3,3.229H3.479
				c-1.65,0-3-1.453-3-3.229V3.63c0-1.776,1.35-3.23,3-3.23h43.042c1.648,0,3,1.454,3,3.23V36.648z"/>
		</g>
	</g>
	<g id="图层_3">
		<rect x="1.017" y="9.438" fill="#C9CACA" width="47.895" height="20.375"/>
	</g>
	<g id="图层_2">
		<line fill="none" stroke="#FFFFFF" stroke-miterlimit="10" x1="1.001" y1="9.668" x2="48.99" y2="9.668"/>
		<line fill="none" stroke="#FFFFFF" stroke-miterlimit="10" x1="1.001" y1="29.793" x2="48.99" y2="29.793"/>
		<line fill="none" stroke="#FFFFFF" stroke-miterlimit="10" x1="6.721" y1="10.122" x2="6.721" y2="29.805"/>
		<line fill="none" stroke="#FFFFFF" stroke-miterlimit="10" x1="13.054" y1="10.122" x2="13.054" y2="29.805"/>
		<line fill="none" stroke="#FFFFFF" stroke-miterlimit="10" x1="19.388" y1="10.122" x2="19.388" y2="29.805"/>
		<line fill="none" stroke="#FFFFFF" stroke-miterlimit="10" x1="25.725" y1="10.122" x2="25.725" y2="29.805"/>
		<line fill="none" stroke="#FFFFFF" stroke-miterlimit="10" x1="31.887" y1="10.122" x2="31.887" y2="29.805"/>
		<line fill="none" stroke="#FFFFFF" stroke-miterlimit="10" x1="38.221" y1="10.122" x2="38.221" y2="29.805"/>
		<line fill="none" stroke="#FFFFFF" stroke-miterlimit="10" x1="44.221" y1="10.122" x2="44.221" y2="29.805"/>
	</g>
</g>
<g id="图层_2_1_">
	<line fill="none" stroke="#036EB8" stroke-miterlimit="10" x1="0.901" y1="10.631" x2="12.938" y2="10.631"/>
	<line fill="none" stroke="#036EB8" stroke-miterlimit="10" x1="0.901" y1="28.85" x2="12.938" y2="28.85"/>
	<line fill="none" stroke="#036EB8" stroke-miterlimit="10" x1="12.531" y1="10.563" x2="38.813" y2="28.969"/>
	<line fill="none" stroke="#036EB8" stroke-miterlimit="10" x1="38.813" y1="10.563" x2="12.531" y2="28.969"/>
	<line fill="none" stroke="#036EB8" stroke-miterlimit="10" x1="38.514" y1="28.881" x2="48.953" y2="28.881"/>
	<line fill="none" stroke="#036EB8" stroke-miterlimit="10" x1="38.514" y1="10.631" x2="48.953" y2="10.631"/>
</g>
</svg>
